HIERARCHY
ROOT hip
{
	OFFSET 0.000000 0.000000 0.000000 
	CHANNELS 6 Xposition Yposition Zposition Xrotation Zrotation Yrotation
	JOINT abdomen
	{
		OFFSET 0.000000 3.402643 0.000000 
		CHANNELS 3 Xrotation Zrotation Yrotation
		JOINT chest
		{
			OFFSET 0.000000 8.438565 -0.680529 
			CHANNELS 3 Xrotation Zrotation Yrotation
			JOINT neck
			{
				OFFSET 0.000000 10.207942 -0.272212 
				CHANNELS 3 Xrotation Zrotation Yrotation
				JOINT head
				{
					OFFSET 0.000000 3.130431 0.000000 
					CHANNELS 3 Xrotation Zrotation Yrotation
					End Site
					{
						OFFSET 0.000000 3.130435 0.000000 
					}
				}
			}
			JOINT lCollar
			{
				OFFSET 3.470700 6.669187 -0.816635 
				CHANNELS 3 Yrotation Zrotation Xrotation
				JOINT lShldr
				{
					OFFSET 3.198488 0.000000 0.000000 
					CHANNELS 3 Zrotation Yrotation Xrotation
					JOINT lForeArm
					{
						OFFSET 10.139888 0.000000 0.000000 
						CHANNELS 3 Yrotation Zrotation Xrotation
						JOINT lHand
						{
							OFFSET 8.370511 0.000000 0.000000 
							CHANNELS 3 Zrotation Yrotation Xrotation
							End Site
							{
								OFFSET 4.083176 0.000000 0.000000 
							}
						}
					}
				}
			}
			JOINT rCollar
			{
				OFFSET -3.470700 6.669187 -0.816635 
				CHANNELS 3 Yrotation Zrotation Xrotation
				JOINT rShldr
				{
					OFFSET -3.198488 0.000000 0.000000 
					CHANNELS 3 Zrotation Yrotation Xrotation
					JOINT rForeArm
					{
						OFFSET -10.139888 0.000000 0.000000 
						CHANNELS 3 Yrotation Zrotation Xrotation
						JOINT rHand
						{
							OFFSET -8.370511 0.000000 0.000000 
							CHANNELS 3 Zrotation Yrotation Xrotation
							End Site
							{
								OFFSET -4.083176 0.000000 0.000000 
							}
						}
					}
				}
			}
		}
	}
	JOINT lThigh
	{
		OFFSET 5.308129 -1.633274 1.361059 
		CHANNELS 3 Xrotation Zrotation Yrotation
		JOINT lShin
		{
			OFFSET -2.041588 -20.007561 0.000000 
			CHANNELS 3 Xrotation Zrotation Yrotation
			JOINT lFoot
			{
				OFFSET 0.000000 -19.190928 -1.224953 
				CHANNELS 3 Xrotation Yrotation Zrotation
				End Site
				{
					OFFSET 0.000000 -2.449906 4.627600 
				}
			}
		}
	}
	JOINT rThigh
	{
		OFFSET -5.308129 -1.633274 1.361059 
		CHANNELS 3 Xrotation Zrotation Yrotation
		JOINT rShin
		{
			OFFSET 2.041588 -20.007561 0.000000 
			CHANNELS 3 Xrotation Zrotation Yrotation
			JOINT rFoot
			{
				OFFSET 0.000000 -19.190928 -1.224953 
				CHANNELS 3 Xrotation Yrotation Zrotation
				End Site
				{
					OFFSET 0.000000 -2.449906 4.627600 
				}
			}
		}
	}
}
MOTION
Frames: 10
Frame Time: 0.033333
2.132443 46.711071 -1.695846 3.427978 -0.682371 -3.644503 0.000000 0.000000 0.000000 17.285181 -0.093246 0.830343 1.028958 1.832500 -0.987197 -0.927769 0.154093 -0.768060 -2.436716 -0.703888 16.357372 -47.537323 -33.885132 39.914215 -51.704723 -7.158073 12.460598 -4.906616 4.958663 -3.581217 3.311047 10.163708 16.186049 42.009518 27.319338 28.721998 51.967686 1.162824 30.378160 2.323572 5.666558 -3.186964 -18.124796 8.955030 5.399088 36.133789 -5.094471 1.976294 -20.437990 0.409714 -2.287621 -21.208969 -11.580788 -8.040387 32.394665 4.011904 -4.862400 -12.081188 -0.686704 6.409497 
2.310764 46.665771 -1.678619 3.174307 -0.994566 -3.688128 0.000000 0.000000 0.000000 17.451241 -0.158374 0.926749 1.054289 2.014145 -0.988276 -0.908204 -0.009631 -0.672214 -2.529762 -0.624239 16.501148 -47.766567 -34.130344 40.049915 -51.918243 -7.107372 11.849349 -4.885607 5.106507 -3.593740 3.296706 10.534474 16.339352 41.245731 27.064379 28.289989 51.766422 1.468862 29.660042 -0.614133 4.859656 -3.425615 -18.141190 8.923752 5.391573 36.659435 -4.941668 2.345599 -20.722406 0.401626 -2.226447 -20.922701 -11.529758 -8.046028 32.444874 4.056772 -4.749118 -12.078445 -0.701717 6.576025 
2.524195 46.636452 -1.682784 3.164578 -1.033578 -3.475278 0.000000 0.000000 0.000000 17.431841 -0.270197 0.754960 0.941289 1.860633 -1.130077 -0.546912 0.163903 -0.768588 -2.574421 -0.671778 16.489262 -48.139072 -34.579758 40.445488 -51.972439 -7.161632 10.978492 -4.520707 4.999283 -3.577305 3.172424 10.115502 16.338743 41.226059 26.749657 28.116837 51.617126 1.807971 28.765423 0.636110 4.630366 -3.339216 -18.349449 8.623018 5.214205 36.922108 -4.869606 2.286332 -20.844015 0.371489 -1.975718 -20.896244 -11.844240 -8.215188 32.489674 4.082064 -4.700336 -12.031106 -0.716624 6.796139 
2.713967 46.600842 -1.668387 3.184303 -1.209068 -3.368233 0.000000 0.000000 0.000000 17.402687 -0.354108 0.621376 0.830213 1.765212 -1.300994 -0.468875 0.298947 -0.848516 -2.579965 -0.443657 16.472338 -48.876251 -35.032379 40.669075 -51.812183 -6.966973 12.219582 -5.173384 4.689926 -3.570866 3.086680 9.878793 16.321674 41.409962 26.578920 27.940716 51.421143 1.901873 29.064610 -0.088224 3.942034 -3.403286 -18.589161 8.473942 5.138756 37.299091 -4.766997 2.566660 -21.060635 0.354507 -1.863258 -20.885378 -11.950855 -8.163808 32.488773 4.067568 -4.636246 -11.987365 -0.746343 7.095700 
2.896816 46.593792 -1.682092 3.360442 -1.442828 -3.620086 0.000000 0.000000 0.000000 17.178371 -0.485160 0.689787 1.018582 1.690782 -1.241893 -0.576225 0.192811 -0.861237 -2.940033 -2.070813 16.217192 -47.206146 -34.330956 40.754967 -52.795834 -6.689894 11.424322 -5.531593 5.570389 -3.632778 3.292223 9.942575 16.109480 41.242531 25.859823 27.989447 51.491917 2.027010 28.123747 -0.535158 3.709965 -3.429848 -18.890425 8.531669 5.199333 37.489609 -4.736724 3.083969 -21.119549 0.351821 -1.842608 -21.010218 -11.822347 -7.998375 32.135975 3.964341 -4.682476 -11.627134 -0.761165 7.364314 
3.085831 46.540932 -1.655198 3.263320 -1.793963 -3.676745 0.000000 0.000000 0.000000 17.198030 -0.531754 0.606818 0.948101 1.743306 -1.249399 -0.048853 -0.135163 -0.633729 -3.104743 -2.137313 16.221479 -47.350407 -34.189213 40.689850 -53.134407 -6.583331 11.788583 -6.096275 5.070859 -3.600563 3.190676 10.120906 16.129059 41.264370 25.545225 27.619272 51.477333 1.897243 28.802122 -0.559177 4.109638 -3.431810 -19.011024 8.631557 5.257237 38.068996 -4.675247 3.091150 -21.512873 0.318683 -1.650401 -20.878622 -11.718601 -7.987535 32.222595 4.022487 -4.523645 -11.671448 -0.774363 7.532113 
3.273339 46.537910 -1.665580 3.263726 -2.008459 -3.786655 0.000000 0.000000 0.000000 17.218229 -0.727586 0.516610 1.074151 1.674486 -1.300360 -0.644551 -0.115664 -0.664761 -3.221631 -1.939997 16.236464 -47.741188 -34.483940 41.189831 -53.164154 -6.562115 11.178520 -5.636732 5.183342 -3.603092 3.173758 10.168297 16.156290 41.232353 25.583738 27.698130 51.421631 2.158850 27.786943 -1.258375 4.478467 -3.473699 -19.084761 8.697044 5.405234 38.201359 -4.736713 3.088754 -21.574511 0.265853 -1.390335 -20.716507 -11.675317 -7.938587 31.960375 4.086794 -4.303811 -11.534656 -0.777618 7.614777 
3.480978 46.528599 -1.659490 3.185788 -2.125619 -3.819737 0.000000 0.000000 0.000000 17.286631 -0.736641 0.415183 1.069274 1.043808 -1.372233 -0.810676 0.298657 -1.221393 -3.189349 -2.899405 16.268723 -46.616146 -34.298664 40.812527 -53.799614 -6.298743 12.540054 -5.503275 4.867762 -3.579813 3.123484 9.560109 16.217268 42.066113 25.397795 27.647148 51.771492 1.650029 28.721619 0.217633 3.744910 -3.384098 -19.076965 8.473808 5.321266 38.322529 -4.684927 3.288855 -21.693523 0.230202 -1.209823 -20.553728 -11.853376 -8.080725 31.727755 4.130818 -4.291407 -11.268083 -0.784564 7.801537 
3.684970 46.523952 -1.647798 3.196027 -2.340109 -3.822329 0.000000 0.000000 0.000000 17.257565 -0.792714 0.310280 1.125712 0.845392 -1.583726 -1.259991 -0.384851 -1.270978 -3.308923 -2.848771 16.251883 -46.793194 -34.454208 40.989647 -53.595905 -6.437802 12.161697 -5.103382 4.116692 -3.532178 3.049636 9.458316 16.200798 42.423729 25.412758 27.962353 51.886589 1.636442 28.535372 0.128551 3.759214 -3.389473 -19.153400 8.433729 5.383174 38.473743 -4.689450 3.381331 -21.802887 0.174510 -0.974024 -20.386208 -11.900981 -8.110526 31.425249 4.218714 -4.137013 -11.072707 -0.787774 7.958560 
3.848063 46.478386 -1.665266 3.529008 -2.592737 -4.115198 0.000000 0.000000 0.000000 16.975029 -0.943364 0.336928 1.001477 0.687133 -1.644349 -1.721268 -1.258589 -1.294226 -3.248549 -3.041953 15.975922 -46.334579 -34.238556 40.787876 -53.761150 -6.359493 12.314805 -5.679970 4.183506 -3.543111 3.045455 9.719695 15.945997 42.502613 25.485483 28.169521 52.047932 1.490694 29.186888 0.814213 3.936442 -3.347476 -19.711113 8.532136 5.360147 38.919842 -4.646399 3.579143 -22.038019 0.174832 -0.884050 -20.852348 -11.684389 -7.883711 31.425472 4.169873 -4.256804 -10.913859 -0.797470 8.145541 
